<svg width="386" height="401" viewBox="0 0 386 401" fill="none" xmlns="http://www.w3.org/2000/svg">
<path d="M107.511 80.4531C111.682 72.134 119.446 67 127.854 67H248.147C256.555 67 264.318 72.134 268.489 80.4531L281.879 107.153C289.469 122.291 282.447 140.573 269.111 145.703C269.159 146.788 269.151 147.889 269.081 149.002L259.04 309.202C258.163 323.174 247.96 334 235.669 334H140.332C128.039 334 117.837 323.174 116.961 309.202L106.919 149.002C106.849 147.889 106.84 146.788 106.889 145.702C93.5529 140.573 86.5309 122.291 94.1217 107.153L107.511 80.4531ZM130.29 147.1L132.801 187.15H243.199L245.71 147.1H130.29ZM137.821 267.25L140.332 307.3H235.669L238.178 267.25H137.821ZM261.535 120.4L248.147 93.7H127.854L114.465 120.4H261.535Z" fill="black"/>
<path d="M147.912 236.344L148.865 236.646L149.29 235.304L147.883 235.344L147.912 236.344ZM143.624 247.8L142.749 247.316L142.745 247.323L142.741 247.329L143.624 247.8ZM136.392 249.144L135.564 249.705L135.571 249.715L136.392 249.144ZM135.496 238.008L134.863 237.234L134.848 237.246L134.834 237.258L135.496 238.008ZM141.256 236.536L141.197 235.538L141.15 235.54L141.104 235.548L141.256 236.536ZM148.296 235.064L148.257 236.063L149.055 236.094L149.262 235.323L148.296 235.064ZM133.704 237.432L134.432 238.117L134.441 238.108L133.704 237.432ZM132.424 243.448H131.424V243.55L131.444 243.65L132.424 243.448ZM137.928 253.432L138.322 252.513L138.314 252.509L137.928 253.432ZM145.736 248.248L146.62 248.715L146.624 248.708L146.627 248.701L145.736 248.248ZM149.896 236.28L149.879 235.28L149.149 235.292L148.938 235.991L149.896 236.28ZM161.416 235.832L161.519 236.827L162.065 236.77L162.31 236.279L161.416 235.832ZM161.48 235.704L162.374 236.151L163.064 234.771L161.523 234.705L161.48 235.704ZM150.216 235.192L149.247 234.944L148.947 236.116L150.155 236.19L150.216 235.192ZM156.488 209.528L155.523 209.265L155.519 209.281L155.515 209.296L156.488 209.528ZM157.384 202.296L158.376 202.172L158.319 201.718L157.938 201.464L157.384 202.296ZM154.376 203.064L155.127 203.724L155.135 203.715L154.376 203.064ZM148.232 208.696L147.793 207.797L147.151 208.111L147.239 208.82L148.232 208.696ZM148.36 209.72L147.367 209.844L147.559 211.378L148.88 210.574L148.36 209.72ZM152.392 206.456L151.784 205.662L151.753 205.686L151.723 205.713L152.392 206.456ZM155.464 203.64L156.071 204.434L156.124 204.394L156.171 204.347L155.464 203.64ZM155.528 203.576L156.518 203.717L156.942 200.748L154.821 202.869L155.528 203.576ZM155.144 206.392L156.127 206.574L156.129 206.565L156.13 206.556L155.144 206.392ZM146.958 236.042C145.723 239.944 144.671 243.844 142.749 247.316L144.499 248.284C146.545 244.588 147.669 240.424 148.865 236.646L146.958 236.042ZM142.741 247.329C142.273 248.208 141.705 248.947 141.11 249.456C140.512 249.967 139.95 250.192 139.464 250.192V252.192C140.578 252.192 141.584 251.681 142.409 250.976C143.238 250.269 143.951 249.312 144.506 248.271L142.741 247.329ZM139.464 250.192C138.888 250.192 138.132 249.894 137.213 248.573L135.571 249.715C136.7 251.338 137.991 252.192 139.464 252.192V250.192ZM137.22 248.583C135.983 246.757 135.152 244.519 135.152 241.592H133.152C133.152 244.937 134.113 247.563 135.564 249.705L137.22 248.583ZM135.152 241.592C135.152 240.362 135.387 239.438 136.157 238.758L134.834 237.258C133.428 238.498 133.152 240.134 133.152 241.592H135.152ZM136.129 238.782C136.625 238.376 137.434 238.106 138.459 237.92C138.954 237.83 139.464 237.765 139.969 237.705C140.461 237.647 140.969 237.592 141.408 237.524L141.104 235.548C140.711 235.608 140.258 235.657 139.734 235.719C139.223 235.779 138.661 235.85 138.101 235.952C137.014 236.15 135.774 236.488 134.863 237.234L136.129 238.782ZM141.314 237.534C143.473 237.407 145.659 237.409 147.94 237.344L147.883 235.344C145.684 235.407 143.391 235.409 141.197 235.538L141.314 237.534ZM148.334 234.065C146.672 234.001 144.926 233.936 143.176 233.936V235.936C144.882 235.936 146.592 235.999 148.257 236.063L148.334 234.065ZM143.176 233.936C141.163 233.936 139.228 233.982 137.514 234.341C135.779 234.706 134.205 235.405 132.967 236.756L134.441 238.108C135.314 237.155 136.46 236.606 137.925 236.299C139.412 235.986 141.157 235.936 143.176 235.936V233.936ZM132.976 236.747C131.717 238.083 131.296 239.84 131.296 241.528H133.296C133.296 240.144 133.642 238.957 134.432 238.117L132.976 236.747ZM131.296 241.528C131.296 241.906 131.334 242.276 131.365 242.588C131.398 242.916 131.424 243.186 131.424 243.448H133.424C133.424 243.07 133.386 242.7 133.355 242.388C133.322 242.06 133.296 241.79 133.296 241.528H131.296ZM131.444 243.65C131.86 245.666 132.375 247.896 133.259 249.818C134.148 251.748 135.462 253.485 137.542 254.355L138.314 252.509C136.873 251.907 135.852 250.668 135.076 248.982C134.297 247.288 133.819 245.262 133.403 243.246L131.444 243.65ZM137.534 254.351C138.149 254.615 138.808 254.688 139.336 254.688V252.688C138.968 252.688 138.603 252.633 138.322 252.513L137.534 254.351ZM139.336 254.688C141.44 254.688 142.983 253.735 144.128 252.517C145.244 251.33 146.022 249.848 146.62 248.715L144.851 247.781C144.233 248.952 143.572 250.19 142.671 251.147C141.8 252.073 140.752 252.688 139.336 252.688V254.688ZM146.627 248.701C148.6 244.822 149.658 240.531 150.853 236.569L148.938 235.991C147.701 240.093 146.712 244.122 144.844 247.795L146.627 248.701ZM149.912 237.28C153.79 237.216 157.752 237.216 161.519 236.827L161.313 234.837C157.656 235.216 153.81 235.216 149.879 235.28L149.912 237.28ZM162.31 236.279L162.374 236.151L160.585 235.257L160.521 235.385L162.31 236.279ZM161.523 234.705C157.022 234.512 155.513 234.513 150.277 234.194L150.155 236.19C155.414 236.511 156.977 236.512 161.437 236.703L161.523 234.705ZM151.185 235.44C152.595 229.927 156.5 213.792 157.461 209.76L155.515 209.296C154.555 213.328 150.653 229.449 149.247 234.944L151.185 235.44ZM157.453 209.791C157.559 209.4 157.821 208.216 158.054 207.014C158.279 205.847 158.512 204.493 158.512 203.832H156.512C156.512 204.259 156.328 205.401 156.09 206.634C155.858 207.832 155.608 208.952 155.523 209.265L157.453 209.791ZM158.512 203.832C158.512 203.247 158.439 202.673 158.376 202.172L156.391 202.42C156.457 202.943 156.512 203.393 156.512 203.832H158.512ZM157.938 201.464C157.899 201.438 157.843 201.393 157.749 201.312C157.671 201.244 157.545 201.131 157.424 201.035C157.205 200.86 156.761 200.528 156.168 200.528V202.528C156.085 202.528 156.04 202.504 156.049 202.508C156.062 202.515 156.1 202.537 156.175 202.597C156.255 202.661 156.324 202.724 156.44 202.824C156.54 202.911 156.677 203.026 156.829 203.128L157.938 201.464ZM156.168 200.528C155.733 200.528 155.372 200.707 155.127 200.866C154.872 201.032 154.645 201.24 154.46 201.43C154.115 201.783 153.742 202.267 153.616 202.413L155.135 203.715C155.393 203.413 155.596 203.129 155.892 202.826C156.026 202.688 156.136 202.596 156.216 202.544C156.307 202.485 156.282 202.528 156.168 202.528V200.528ZM153.625 202.404C151.691 204.605 150.188 206.629 147.793 207.797L148.67 209.595C151.523 208.203 153.349 205.747 155.127 203.724L153.625 202.404ZM147.239 208.82L147.367 209.844L149.352 209.596L149.224 208.572L147.239 208.82ZM148.88 210.574C150.452 209.617 151.815 208.321 153.061 207.199L151.723 205.713C150.409 206.895 149.212 208.031 147.84 208.866L148.88 210.574ZM152.999 207.25C153.605 206.787 154.148 206.242 154.635 205.755C155.14 205.25 155.589 204.803 156.071 204.434L154.856 202.846C154.25 203.309 153.708 203.854 153.221 204.341C152.716 204.846 152.266 205.293 151.784 205.662L152.999 207.25ZM156.171 204.347L156.235 204.283L154.821 202.869L154.757 202.933L156.171 204.347ZM154.538 203.435C154.401 204.392 154.285 205.464 154.157 206.228L156.13 206.556C156.259 205.784 156.399 204.552 156.518 203.717L154.538 203.435ZM154.16 206.21C153.208 211.353 148.993 228.601 147.33 234.805L149.262 235.323C150.927 229.111 155.159 211.799 156.127 206.574L154.16 206.21ZM177.369 231.032L178.339 231.275L179.052 228.424L176.749 230.248L177.369 231.032ZM194.329 228.472L195.036 229.179L195.682 228.533L195.097 227.832L194.329 228.472ZM193.689 227.704L194.457 227.064L193.756 226.223L192.982 226.997L193.689 227.704ZM178.521 227.768L179.393 228.258L179.399 228.247L178.521 227.768ZM167.897 232.696L166.949 232.38L166.949 232.38L167.897 232.696ZM169.497 227.96L170.446 228.276L170.446 228.276L169.497 227.96ZM166.105 226.232L165.157 225.916L165.151 225.933L165.146 225.95L166.105 226.232ZM165.785 227.32L166.689 227.748L166.723 227.677L166.745 227.602L165.785 227.32ZM167.385 236.28V237.28H167.426L167.466 237.277L167.385 236.28ZM176.399 230.789C176.28 231.266 176.113 231.844 176.113 232.568H178.113C178.113 232.14 178.203 231.822 178.339 231.275L176.399 230.789ZM176.113 232.568C176.113 234.247 176.452 235.586 177.209 236.518C177.998 237.49 179.104 237.856 180.249 237.856V235.856C179.539 235.856 179.077 235.646 178.762 235.258C178.415 234.83 178.113 234.025 178.113 232.568H176.113ZM180.249 237.856C181.628 237.856 183.176 237.326 184.665 236.609C186.177 235.881 187.733 234.909 189.157 233.916C191.999 231.935 194.414 229.802 195.036 229.179L193.622 227.765C193.093 228.294 190.771 230.353 188.013 232.276C186.638 233.235 185.178 234.143 183.798 234.807C182.395 235.482 181.174 235.856 180.249 235.856V237.856ZM195.097 227.832L194.457 227.064L192.921 228.344L193.561 229.112L195.097 227.832ZM192.982 226.997C192.06 227.919 190.046 229.506 187.878 230.865C186.8 231.54 185.709 232.144 184.722 232.574C183.709 233.016 182.903 233.232 182.361 233.232V235.232C183.324 235.232 184.438 234.88 185.521 234.408C186.629 233.924 187.81 233.268 188.94 232.559C191.189 231.15 193.335 229.473 194.396 228.411L192.982 226.997ZM182.361 233.232C182.003 233.232 181.887 233.143 181.852 233.109C181.818 233.075 181.697 232.926 181.697 232.44H179.697C179.697 233.234 179.896 233.981 180.438 234.523C180.98 235.065 181.695 235.232 182.361 235.232V233.232ZM181.697 232.44C181.697 231.804 181.922 231.077 182.215 230.256C182.352 229.873 182.509 229.451 182.625 229.07C182.74 228.694 182.849 228.258 182.849 227.832H180.849C180.849 227.95 180.814 228.154 180.713 228.484C180.614 228.809 180.483 229.159 180.331 229.584C180.048 230.379 179.697 231.412 179.697 232.44H181.697ZM182.849 227.832C182.849 227.415 182.758 226.85 182.3 226.413C181.855 225.988 181.259 225.872 180.697 225.872V227.872C180.854 227.872 180.936 227.889 180.968 227.899C180.994 227.907 180.964 227.902 180.919 227.859C180.898 227.839 180.88 227.817 180.866 227.794C180.853 227.772 180.847 227.756 180.844 227.748C180.84 227.736 180.849 227.757 180.849 227.832H182.849ZM180.697 225.872C180.216 225.872 179.648 225.926 179.113 226.111C178.577 226.297 177.994 226.647 177.643 227.289L179.399 228.247C179.433 228.185 179.521 228.087 179.769 228.001C180.019 227.914 180.346 227.872 180.697 227.872V225.872ZM177.65 227.278C177.651 227.275 177.646 227.284 177.631 227.307C177.616 227.328 177.595 227.357 177.566 227.393C177.51 227.466 177.433 227.558 177.334 227.668C177.138 227.888 176.873 228.161 176.553 228.47C175.912 229.086 175.071 229.821 174.147 230.524C173.221 231.23 172.231 231.889 171.291 232.367C170.33 232.855 169.519 233.104 168.921 233.104V235.104C169.988 235.104 171.137 234.689 172.197 234.149C173.279 233.599 174.374 232.866 175.359 232.116C176.347 231.363 177.246 230.578 177.94 229.91C178.286 229.577 178.587 229.267 178.826 229.001C179.047 228.752 179.263 228.488 179.393 228.258L177.65 227.278ZM168.921 233.104C168.781 233.104 168.692 233.092 168.641 233.08C168.59 233.069 168.599 233.063 168.635 233.088C168.654 233.101 168.677 233.121 168.699 233.148C168.721 233.174 168.739 233.203 168.751 233.229C168.775 233.282 168.769 233.306 168.769 233.272H166.769C166.769 233.808 166.966 234.356 167.479 234.72C167.922 235.034 168.461 235.104 168.921 235.104V233.104ZM168.769 233.272C168.769 233.285 168.767 233.275 168.779 233.227C168.792 233.174 168.812 233.115 168.846 233.012L166.949 232.38C166.896 232.538 166.769 232.888 166.769 233.272H168.769ZM168.846 233.012C169.037 232.439 169.34 231.547 169.644 230.649C169.948 229.755 170.253 228.855 170.446 228.276L168.549 227.644C168.358 228.217 168.055 229.109 167.75 230.007C167.447 230.901 167.142 231.801 166.949 232.38L168.846 233.012ZM170.446 228.276C170.633 227.714 170.945 226.736 170.945 225.848H168.945C168.945 226.368 168.745 227.054 168.549 227.644L170.446 228.276ZM170.945 225.848C170.945 225.331 170.851 224.697 170.46 224.172C170.029 223.592 169.368 223.312 168.601 223.312V225.312C168.743 225.312 168.809 225.336 168.83 225.346C168.845 225.353 168.849 225.357 168.855 225.364C168.88 225.399 168.945 225.533 168.945 225.848H170.945ZM168.601 223.312C167.614 223.312 166.811 223.543 166.199 224.102C165.626 224.625 165.353 225.326 165.157 225.916L167.054 226.548C167.241 225.986 167.385 225.727 167.548 225.578C167.672 225.465 167.925 225.312 168.601 225.312V223.312ZM165.146 225.95L164.826 227.038L166.745 227.602L167.065 226.514L165.146 225.95ZM164.882 226.892C164.264 228.195 163.441 230.776 163.441 232.952H165.441C165.441 231.16 166.154 228.877 166.689 227.748L164.882 226.892ZM163.441 232.952C163.441 233.964 163.61 235.033 164.182 235.874C164.8 236.783 165.787 237.28 167.065 237.28V235.28C166.359 235.28 166.034 235.041 165.836 234.75C165.592 234.391 165.441 233.796 165.441 232.952H163.441ZM167.065 237.28H167.385V235.28H167.065V237.28ZM167.466 237.277C172.578 236.862 175.031 234.159 177.99 231.816L176.749 230.248C173.564 232.769 171.665 234.93 167.304 235.283L167.466 237.277ZM194.498 231.288L193.509 231.144L193.498 231.215V231.288H194.498ZM196.802 219.704L195.935 219.206L195.865 219.328L195.831 219.465L196.802 219.704ZM205.25 202.552L206.192 202.889L206.222 202.805L206.237 202.716L205.25 202.552ZM202.114 199.16L202.669 199.992L202.676 199.987L202.683 199.982L202.114 199.16ZM199.81 203.384L200.737 203.76L200.739 203.755L199.81 203.384ZM193.794 220.856L194.77 221.076L194.772 221.066L193.794 220.856ZM192.258 233.592L193.252 233.484L193.251 233.467L193.248 233.451L192.258 233.592ZM210.562 228.472L211.269 229.179L211.915 228.533L211.33 227.832L210.562 228.472ZM209.922 227.704L210.69 227.064L209.989 226.223L209.215 226.997L209.922 227.704ZM198.466 214.072L197.526 213.731L199.339 214.56L198.466 214.072ZM204.226 201.08L205.203 201.295L203.369 200.566L204.226 201.08ZM195.434 233.208C195.434 232.85 195.449 232.502 195.465 232.177C195.48 231.866 195.498 231.543 195.498 231.288H193.498C193.498 231.481 193.484 231.734 193.467 232.079C193.451 232.41 193.434 232.798 193.434 233.208H195.434ZM195.488 231.432C195.931 228.396 196.884 223.564 197.773 219.943L195.831 219.465C194.928 223.14 193.962 228.036 193.509 231.144L195.488 231.432ZM197.669 220.202C200.616 215.078 204.303 208.164 206.192 202.889L204.309 202.215C202.485 207.308 198.877 214.09 195.935 219.206L197.669 220.202ZM206.237 202.716C206.236 202.717 206.241 202.692 206.259 202.624C206.276 202.561 206.298 202.484 206.327 202.388C206.381 202.203 206.455 201.956 206.527 201.696C206.663 201.198 206.826 200.523 206.826 199.928H204.826C204.826 200.229 204.733 200.674 204.598 201.168C204.533 201.404 204.467 201.621 204.408 201.824C204.357 201.997 204.292 202.219 204.264 202.388L206.237 202.716ZM206.826 199.928C206.826 199.034 206.465 198.332 205.98 197.86C205.529 197.421 204.922 197.136 204.354 197.136V199.136C204.309 199.136 204.324 199.127 204.389 199.157C204.447 199.183 204.518 199.227 204.585 199.292C204.707 199.412 204.826 199.606 204.826 199.928H206.826ZM204.354 197.136C203.815 197.136 203.302 197.321 202.867 197.534C202.422 197.751 201.973 198.042 201.545 198.338L202.683 199.982C203.088 199.702 203.439 199.481 203.746 199.33C204.062 199.175 204.254 199.136 204.354 199.136V197.136ZM201.56 198.328C201.333 198.479 201.158 198.7 201.052 198.843C200.926 199.013 200.796 199.214 200.671 199.423C200.42 199.842 200.15 200.353 199.901 200.846C199.408 201.825 198.961 202.814 198.882 203.013L200.739 203.755C200.739 203.755 200.739 203.755 200.739 203.755C200.739 203.755 200.739 203.755 200.739 203.755C200.739 203.755 200.739 203.754 200.739 203.754C200.74 203.753 200.74 203.751 200.741 203.749C200.743 203.746 200.745 203.741 200.747 203.735C200.753 203.722 200.759 203.706 200.768 203.687C200.785 203.647 200.808 203.596 200.835 203.535C200.89 203.412 200.963 203.251 201.05 203.064C201.224 202.69 201.449 202.218 201.687 201.746C201.927 201.271 202.172 200.81 202.387 200.451C202.495 200.271 202.586 200.131 202.658 200.034C202.75 199.91 202.752 199.937 202.669 199.992L201.56 198.328ZM198.884 203.008C196.971 207.726 193.926 215.489 192.817 220.646L194.772 221.066C195.838 216.111 198.81 208.514 200.737 203.76L198.884 203.008ZM192.819 220.636C192.245 223.187 191.194 228.218 191.194 232.056H193.194C193.194 228.47 194.192 223.645 194.77 221.076L192.819 220.636ZM191.194 232.056C191.194 232.545 191.192 233.2 191.268 233.733L193.248 233.451C193.196 233.088 193.194 232.591 193.194 232.056H191.194ZM191.264 233.7C191.465 235.539 191.912 236.958 192.681 237.932C193.495 238.962 194.585 239.392 195.778 239.392V237.392C195.116 237.392 194.638 237.182 194.251 236.692C193.82 236.146 193.436 235.165 193.252 233.484L191.264 233.7ZM195.778 239.392C197.109 239.392 198.583 238.851 200.009 238.107C201.458 237.351 202.968 236.326 204.4 235.236C207.266 233.053 209.91 230.539 211.269 229.179L209.855 227.765C208.527 229.093 205.954 231.539 203.188 233.644C201.805 234.698 200.395 235.649 199.084 236.333C197.75 237.029 196.623 237.392 195.778 237.392V239.392ZM211.33 227.832L210.69 227.064L209.154 228.344L209.794 229.112L211.33 227.832ZM209.215 226.997C208.043 228.169 205.607 230.277 203.042 232.087C201.76 232.991 200.469 233.804 199.304 234.388C198.107 234.987 197.166 235.28 196.546 235.28V237.28C197.654 237.28 198.945 236.805 200.2 236.176C201.487 235.532 202.868 234.657 204.195 233.721C206.845 231.851 209.37 229.671 210.629 228.411L209.215 226.997ZM196.546 235.28C196.118 235.28 195.92 235.138 195.776 234.918C195.586 234.627 195.434 234.087 195.434 233.208H193.434C193.434 234.249 193.602 235.245 194.1 236.01C194.645 236.846 195.502 237.28 196.546 237.28V235.28ZM199.406 214.413C201.001 210.012 203.407 204.39 205.084 201.594L203.369 200.566C201.59 203.53 199.132 209.3 197.526 213.731L199.406 214.413ZM203.25 200.865C202.454 204.475 200.034 209.216 197.593 213.584L199.339 214.56C201.762 210.224 204.334 205.237 205.203 201.295L203.25 200.865ZM209.596 229.24L210.559 229.51L210.569 229.473L210.577 229.436L209.596 229.24ZM222.268 228.472L222.975 229.179L223.621 228.533L223.036 227.832L222.268 228.472ZM221.628 227.704L222.396 227.064L221.695 226.223L220.921 226.997L221.628 227.704ZM212.604 228.536L213.544 228.878L213.549 228.865L213.553 228.852L212.604 228.536ZM210.108 226.552L209.176 226.19L209.171 226.204L209.165 226.219L210.108 226.552ZM213.116 218.872L212.498 219.658L212.861 219.943L213.312 219.853L213.116 218.872ZM213.436 218.808L213.632 219.789L214.066 219.702L214.294 219.322L213.436 218.808ZM214.332 216.824L215.281 217.14L215.332 216.986V216.824H214.332ZM214.396 216.12H215.396V216.092L215.395 216.065L214.396 216.12ZM212.732 213.304L213.203 212.422L212.424 212.006L211.915 212.727L212.732 213.304ZM211.196 215.48V216.48H211.714L212.013 216.057L211.196 215.48ZM211.004 215.608H210.004V215.739L210.038 215.866L211.004 215.608ZM208.633 228.97C208.163 230.651 208.02 231.958 208.02 232.952H210.02C210.02 232.154 210.134 231.029 210.559 229.51L208.633 228.97ZM208.02 232.952C208.02 233.923 208.213 234.767 208.734 235.372C209.284 236.012 210.028 236.192 210.684 236.192V234.192C210.38 234.192 210.292 234.116 210.25 234.068C210.179 233.985 210.02 233.709 210.02 232.952H208.02ZM210.684 236.192C213.086 236.192 215.735 234.819 217.9 233.357C220.11 231.864 222.014 230.14 222.975 229.179L221.561 227.765C220.666 228.66 218.859 230.296 216.781 231.699C214.658 233.133 212.442 234.192 210.684 234.192V236.192ZM223.036 227.832L222.396 227.064L220.86 228.344L221.5 229.112L223.036 227.832ZM220.921 226.997C220.057 227.862 218.546 229.216 216.966 230.347C216.176 230.912 215.39 231.406 214.674 231.755C213.937 232.114 213.369 232.272 212.988 232.272V234.272C213.823 234.272 214.719 233.958 215.55 233.553C216.402 233.138 217.288 232.576 218.13 231.973C219.815 230.768 221.408 229.338 222.335 228.411L220.921 226.997ZM212.988 232.272C212.907 232.272 212.87 232.259 212.861 232.255C212.857 232.253 212.859 232.254 212.858 232.253C212.853 232.247 212.772 232.14 212.772 231.8H210.772C210.772 232.42 210.915 233.049 211.326 233.539C211.759 234.055 212.368 234.272 212.988 234.272V232.272ZM212.772 231.8C212.772 231.235 213.024 230.309 213.544 228.878L211.664 228.194C211.161 229.579 210.772 230.829 210.772 231.8H212.772ZM213.553 228.852C213.783 228.161 213.86 227.541 213.86 226.936H211.86C211.86 227.355 211.809 227.759 211.656 228.22L213.553 228.852ZM213.86 226.936C213.86 226.202 213.708 225.498 213.374 224.942C213.034 224.375 212.445 223.888 211.644 223.888V225.888C211.547 225.888 211.567 225.817 211.659 225.97C211.757 226.134 211.86 226.454 211.86 226.936H213.86ZM211.644 223.888C211.037 223.888 210.522 224.193 210.135 224.592C209.748 224.99 209.431 225.535 209.176 226.19L211.04 226.914C211.234 226.417 211.428 226.13 211.57 225.984C211.711 225.839 211.74 225.888 211.644 225.888V223.888ZM209.165 226.219C208.942 226.853 208.818 227.519 208.743 228.04C208.704 228.304 208.677 228.541 208.656 228.723C208.645 228.817 208.637 228.89 208.629 228.951C208.625 228.981 208.622 229.003 208.619 229.021C208.617 229.039 208.615 229.046 208.616 229.044L210.577 229.436C210.603 229.304 210.625 229.109 210.643 228.953C210.664 228.771 210.688 228.56 210.722 228.328C210.79 227.857 210.891 227.339 211.051 226.885L209.165 226.219ZM213.312 219.853L213.632 219.789L213.24 217.827L212.92 217.891L213.312 219.853ZM214.294 219.322C214.493 218.99 214.593 218.831 214.694 218.663C214.78 218.52 214.858 218.387 214.923 218.234C214.986 218.088 215.029 217.943 215.069 217.81C215.112 217.665 215.173 217.463 215.281 217.14L213.384 216.508C213.267 216.857 213.2 217.079 213.154 217.232C213.104 217.397 213.094 217.424 213.085 217.446C213.079 217.461 213.065 217.492 212.981 217.631C212.912 217.745 212.763 217.986 212.579 218.294L214.294 219.322ZM215.332 216.824C215.332 216.777 215.337 216.731 215.354 216.613C215.369 216.507 215.396 216.329 215.396 216.12H213.396C213.396 216.167 213.391 216.213 213.374 216.331C213.359 216.437 213.332 216.615 213.332 216.824H215.332ZM215.395 216.065C215.315 214.63 214.526 213.127 213.203 212.422L212.262 214.186C212.859 214.505 213.349 215.306 213.398 216.175L215.395 216.065ZM211.915 212.727L210.379 214.903L212.013 216.057L213.549 213.881L211.915 212.727ZM211.196 214.48C210.918 214.48 210.69 214.585 210.562 214.663C210.483 214.71 210.373 214.787 210.27 214.906C210.175 215.015 210.004 215.256 210.004 215.608H212.004C212.004 215.928 211.849 216.137 211.781 216.216C211.704 216.305 211.629 216.354 211.591 216.377C211.547 216.404 211.503 216.424 211.455 216.44C211.419 216.452 211.326 216.48 211.196 216.48V214.48ZM210.038 215.866C210.317 216.911 210.665 217.67 211.105 218.281C211.544 218.889 212.038 219.296 212.498 219.658L213.734 218.086C213.299 217.744 212.993 217.479 212.727 217.111C212.464 216.746 212.204 216.225 211.97 215.35L210.038 215.866ZM235.172 224.888L234.241 225.252L234.44 225.761L234.976 225.869L235.172 224.888ZM221.924 233.656V234.656H222.007L222.088 234.642L221.924 233.656ZM233.316 228.152V227.152H233.066L232.845 227.27L233.316 228.152ZM232.996 229.304L232.047 228.988L232.04 229.008L232.034 229.029L232.996 229.304ZM232.612 230.52L233.573 230.795L233.584 230.756L233.592 230.716L232.612 230.52ZM249.06 228.472L249.767 229.179L250.413 228.533L249.828 227.832L249.06 228.472ZM248.42 227.704L249.188 227.064L248.487 226.223L247.713 226.997L248.42 227.704ZM233.06 225.464L233.574 226.321L234.673 225.663L233.767 224.757L233.06 225.464ZM232.1 226.04L231.585 225.183L231.543 225.208L231.504 225.237L232.1 226.04ZM222.436 232.248V233.248H222.525L222.612 233.232L222.436 232.248ZM237.516 227C237.516 226.355 237.404 225.678 237.066 225.102C236.707 224.489 236.129 224.06 235.368 223.907L234.976 225.869C235.175 225.908 235.269 225.991 235.341 226.114C235.435 226.274 235.516 226.557 235.516 227H237.516ZM236.103 224.524C235.31 222.497 233.314 221.776 231.268 221.776V223.776C232.933 223.776 233.881 224.335 234.241 225.252L236.103 224.524ZM231.268 221.776C228.026 221.776 224.884 223.297 222.579 225.139C221.419 226.066 220.436 227.102 219.734 228.122C219.051 229.115 218.556 230.206 218.556 231.224H220.556C220.556 230.802 220.789 230.117 221.382 229.256C221.955 228.422 222.796 227.526 223.828 226.701C225.907 225.039 228.621 223.776 231.268 223.776V221.776ZM218.556 231.224C218.556 233.12 220.155 234.656 221.924 234.656V232.656C221.26 232.656 220.556 232.016 220.556 231.224H218.556ZM222.088 234.642C224.542 234.233 226.304 233.443 228.046 232.443C228.9 231.953 229.767 231.401 230.684 230.835C231.61 230.263 232.613 229.66 233.786 229.034L232.845 227.27C231.618 227.924 230.574 228.553 229.633 229.133C228.684 229.719 227.867 230.239 227.05 230.709C225.448 231.629 223.913 232.311 221.759 232.67L222.088 234.642ZM233.316 229.152C233.023 229.152 232.813 229.015 232.697 228.899C232.58 228.783 232.444 228.573 232.444 228.28H234.444C234.444 227.923 234.275 227.649 234.111 227.485C233.947 227.321 233.673 227.152 233.316 227.152V229.152ZM232.444 228.28C232.444 228.175 232.464 228.104 232.469 228.088C232.475 228.066 232.479 228.059 232.472 228.075C232.457 228.109 232.431 228.162 232.381 228.257C232.301 228.41 232.142 228.702 232.047 228.988L233.944 229.62C233.977 229.522 234.042 229.398 234.154 229.183C234.201 229.094 234.262 228.975 234.312 228.859C234.347 228.776 234.444 228.548 234.444 228.28H232.444ZM232.034 229.029C231.98 229.22 231.912 229.411 231.835 229.633C231.766 229.83 231.679 230.086 231.631 230.324L233.592 230.716C233.609 230.634 233.649 230.506 233.725 230.287C233.792 230.093 233.884 229.836 233.957 229.579L232.034 229.029ZM231.65 230.245C231.256 231.627 231.036 232.817 231.036 233.784H233.036C233.036 233.087 233.2 232.101 233.573 230.795L231.65 230.245ZM231.036 233.784C231.036 234.988 231.327 236.008 232 236.73C232.684 237.463 233.61 237.728 234.532 237.728V235.728C233.981 235.728 233.66 235.577 233.463 235.366C233.256 235.144 233.036 234.692 233.036 233.784H231.036ZM234.532 237.728C235.861 237.728 237.417 237.202 238.933 236.498C240.477 235.781 242.097 234.823 243.592 233.845C246.562 231.899 249.154 229.792 249.767 229.179L248.353 227.765C247.878 228.24 245.414 230.261 242.496 232.171C241.046 233.121 239.515 234.023 238.091 234.684C236.639 235.358 235.41 235.728 234.532 235.728V237.728ZM249.828 227.832L249.188 227.064L247.652 228.344L248.292 229.112L249.828 227.832ZM247.713 226.997C246.904 227.806 244.683 229.452 242.25 230.91C241.044 231.633 239.819 232.289 238.726 232.762C237.599 233.25 236.73 233.488 236.196 233.488V235.488C237.165 235.488 238.353 235.102 239.52 234.598C240.72 234.079 242.027 233.375 243.278 232.626C245.756 231.14 248.144 229.394 249.127 228.411L247.713 226.997ZM236.196 233.488C236.339 233.488 236.449 233.548 236.503 233.595C236.544 233.63 236.532 233.638 236.5 233.566C236.433 233.417 236.364 233.122 236.364 232.696H234.364C234.364 233.294 234.455 233.895 234.676 234.386C234.882 234.845 235.351 235.488 236.196 235.488V233.488ZM236.364 232.696C236.364 231.849 236.599 231.08 236.893 230.149C237.175 229.256 237.516 228.201 237.516 227H235.516C235.516 227.847 235.28 228.616 234.986 229.547C234.704 230.44 234.364 231.495 234.364 232.696H236.364ZM232.545 224.607L231.585 225.183L232.614 226.897L233.574 226.321L232.545 224.607ZM231.504 225.237C230.48 225.996 229.625 226.725 228.862 227.39C228.089 228.064 227.436 228.65 226.77 229.174C225.479 230.189 224.202 230.916 222.259 231.264L222.612 233.232C224.957 232.812 226.529 231.907 228.006 230.746C228.724 230.182 229.435 229.544 230.176 228.898C230.926 228.243 231.735 227.556 232.696 226.843L231.504 225.237ZM222.436 231.248C222.346 231.248 222.253 231.245 222.167 231.235C222.078 231.225 222.021 231.211 221.994 231.202C221.963 231.19 222.017 231.202 222.087 231.279C222.125 231.32 222.161 231.376 222.187 231.442C222.212 231.508 222.22 231.567 222.22 231.608H220.22C220.22 231.998 220.359 232.351 220.606 232.623C220.834 232.874 221.109 233.01 221.325 233.086C221.744 233.235 222.193 233.248 222.436 233.248V231.248ZM222.22 231.608C222.22 231.729 222.189 231.784 222.21 231.729C222.224 231.692 222.255 231.624 222.311 231.523C222.423 231.323 222.602 231.053 222.849 230.731C223.34 230.09 224.054 229.303 224.915 228.541C226.677 226.98 228.858 225.696 230.884 225.696V223.696C228.109 223.696 225.458 225.388 223.589 227.043C222.634 227.889 221.832 228.77 221.261 229.515C220.976 229.886 220.738 230.238 220.565 230.547C220.479 230.701 220.401 230.86 220.341 231.015C220.289 231.153 220.22 231.367 220.22 231.608H222.22ZM230.884 225.696C231.604 225.696 232.083 225.902 232.353 226.171L233.767 224.757C233.012 224.002 231.956 223.696 230.884 223.696V225.696Z" fill="white"/>
</svg>
