<svg version="1.2" xmlns="http://www.w3.org/2000/svg" viewBox="0 0 500 500" width="900" height="900">
	<title>file</title>
	<style>
		.s0 { opacity: .9;fill: #000000 } 
	</style>
	<path id="Path 0" fill-rule="evenodd" class="s0" d="m236 121c1.1 0 4.6 1.2 7.8 2.6 3.1 1.4 6 3.1 6.4 3.7 0.3 0.7 0.2 2.2-0.3 3.4-0.5 1.3-0.9 4.1-0.9 6.3 0 2.2-0.4 4.2-1 4.5-0.6 0.3-1.1 2-1.3 3.9-0.2 3.1 0 3.4 4.3 4.5 2.5 0.7 7 2 10 2.9 3 0.9 5.9 1.9 6.5 2.3 0.6 0.4 3 1.1 5.4 1.6 2.4 0.4 4.5 1.1 4.7 1.6 0.2 0.4 8.7 0.7 18.7 0.7 10.1 0 18.7-0.3 19.1-0.7 0.4-0.5 4-1.3 7.9-1.9 4-0.6 8-1.4 8.9-1.8 1.3-0.4 3.4 1 7.8 5.4 3.3 3.3 6 6.4 6 7 0 0.6 1.4 2.3 3 4 1.6 1.7 3 3.2 3 3.5 0 0.3 1.1 1.7 2.5 3.3 1.4 1.5 2.8 4 3.1 5.7 0.3 1.7 0.3 4.8-0.1 7-0.4 2.2-1.1 4.7-1.6 5.5-0.4 0.8-1.7 3.5-2.7 6-1.1 2.5-2.5 6-3.3 7.8-0.8 1.7-1.7 3.2-2.2 3.2-0.4 0-0.9 1.3-1.2 3-0.3 1.7-0.9 3-1.5 3-0.6 0-1 0.7-1 1.5 0 0.8-1.7 5.2-3.9 9.8-2.1 4.5-4.2 9.3-4.6 10.7-0.4 1.4-1.1 2.9-1.5 3.5-0.4 0.6-1.1 2.6-1.5 4.5-0.4 1.9-1.1 3.9-1.5 4.5-0.4 0.6-1 2.9-1.4 5.3-0.3 2.5-1.6 5.2-3.1 6.7-1.4 1.4-4.2 2.8-6.3 3.1-2 0.4-4.1 1-4.7 1.4-0.6 0.5-3.9 1.1-7.5 1.5-5.3 0.6-6.8 0.4-8.3-0.9-0.9-0.9-1.7-3-1.7-4.6 0-1.6-0.6-3.9-1.3-4.9-1-1.6-0.9-2.2 0.3-3.6 1.1-1.1 3.2-1.6 7.8-1.5 5.8 0 6.6-0.3 9.3-3 2.7-2.8 2.9-3.5 2.9-20l4.7-6.3c4-5.4 4.5-6.6 4-9.7-0.3-1.9-0.9-5.1-1.2-7-0.5-2.2-0.2-4.4 0.7-5.9 0.7-1.4 2.2-3.5 3.3-4.6 1.1-1.2 2.3-3.6 2.7-5.3 0.5-1.8 0.6-4.4 0.3-6-0.4-1.6-1.8-3.4-3.8-4.6-2.7-1.6-4.3-1.8-10-1.3-3.7 0.4-7.5 1.1-8.5 1.6-0.9 0.5-4.6 1.4-8.2 2.1-3.6 0.6-6.6 1.2-6.7 1.3 0 0.1-0.6 4.3-1.2 9.2-0.7 4.9-1.6 13.5-2.1 19-0.6 5.5-1.5 11.3-2 13-0.6 1.7-1 5.2-1 8 0 2.7-0.7 9.3-1.5 14.5-0.8 5.2-1.9 9.9-2.4 10.5-0.5 0.6-1.2 5.1-1.6 10-0.6 7.4-0.5 9.6 0.9 12.5 0.9 1.9 1.6 5.5 1.6 8 0 2.5 0.5 7.2 1 10.5 0.6 3.3 1.5 10.3 2 15.5 0.5 5.2 1.4 14.7 2 21 0.6 6.3 1.5 13.4 2 15.7 0.6 2.4 1.3 9.4 2.5 27.1l-4 0.7c-2.2 0.3-4.9 1-6 1.5-1.1 0.4-4.9 1.3-8.5 2-3.6 0.7-7.9 1.4-9.5 1.5-1.6 0.1-3.4 0.4-4 0.8-0.6 0.3-12.7 0.6-27 0.7-15.3 0.1-27.4-0.3-29.5-0.9-1.9-0.6-5.5-1.6-8-2.3-2.5-0.7-4.9-1.6-5.5-2-0.6-0.3-3.4-1-6.4-1.5-2.9-0.4-5.5-1.1-5.7-1.6-0.2-0.4-1.3-0.7-2.4-0.7-1.8 0-2-0.5-1.6-4.8 0.3-2.6 1.2-9.6 2.1-15.7 0.8-6.1 2-14.6 2.5-19 0.5-4.4 1.4-10.3 1.9-13 0.6-2.8 1.5-9.1 2.1-14 0.6-4.9 1.5-12.1 2-16 0.4-3.9 1.1-8.4 1.5-10 0.4-1.6 1.3-3.9 1.9-5 1-1.5 1-4.2 0.2-11.6-0.6-5.3-1.6-10.2-2.2-11-0.6-0.8-1.5-3.7-2-6.4-0.4-2.8-0.8-6.8-0.9-9-0.1-2.2-0.6-7.2-1-11-0.4-4.3-1.9-9.5-3.7-13.5-1.6-3.6-4.1-9-5.5-12-1.5-3-3-6.4-3.4-7.5-0.4-1.1-1.4-3.6-2.3-5.5-0.8-1.9-2.6-6.1-4-9.3-1.5-3.3-4-6.8-6.1-8.5-2.2-1.7-3.5-3.5-3.4-4.9 0-1.5 1.4-3.1 3.7-4.6 2.1-1.3 9.6-3.8 17.2-5.7 7.4-1.8 14.2-3.6 15-4 0.8-0.4 3.3-1.1 5.5-1.5 2.2-0.3 4.9-1 6-1.5 1.1-0.5 3.8-1.3 6-1.8 2.2-0.6 7.4-2 11.5-3.1 4.1-1.2 7.6-2.2 7.8-2.3 0.1-0.2-0.4-2.1-1.2-4.3-0.7-2.2-1.9-5.8-2.6-8-0.7-2.2-1-5.1-0.7-6.5 0.5-1.8 2-3.1 5.2-4.5 2.5-1.1 4.5-2.3 4.5-2.8 0-0.4 0.9-0.7 2-0.7zm-6.2 31.8c0.1 0.4-1 2-2.5 3.7-1.4 1.7-4.5 4.9-6.7 7.3l-4.1 4.2h42c-15.2-15.2-16.4-16-20.5-16.4-2.5-0.3-5.4-0.2-6.5 0-1.1 0.3-1.9 0.9-1.7 1.2zm-13.9 2.1c-0.8 0.1-2.4 0.5-3.5 1-1 0.5-3.2 1.5-4.8 2.2-1.5 0.8-3.5 2.1-4.5 2.9-0.9 0.8-2.9 2.5-4.6 3.7l-3 2.3 16.6 0.5c8.9-9.3 12.1-12.8 12.7-13.8 0.7-0.9 0.9-1.6 0.5-1.6-0.4 0.1-2.4 0.7-4.3 1.5-1.9 0.7-4.2 1.3-5.1 1.3zm46.6 12.1l27.7-0.5c-16-5.4-21.1-7.2-21.7-7.6-0.6-0.4-2.6-1-4.5-1.4-1.9-0.4-3.9-1.1-4.5-1.5-0.6-0.4-3-1.1-5.5-1.5l-4.5-0.7zm-76-3.8c-2.2 0.5-6.7 1.5-10 2.3l-6 1.3c19.6 0.2 20.3 0 22.7-2.3 1.3-1.4 3-2.5 3.6-2.5 0.7 0 1.2-0.5 1.2-1 0-0.6-0.6-1-1.3-0.9-0.6 0-2.3 0.5-3.7 1.1-1.4 0.6-4.3 1.5-6.5 2zm104.8 0.8c0.6-0.1 2 0.7 3 1.7 1.4 1.4 1.7 2.9 1.3 6.8-0.2 2.7-0.7 6.5-1 8.2-0.5 2.7-0.3 3.3 1.2 3.3 1 0 2.2-0.4 2.7-0.9 0.6-0.5 2.4-1.1 4-1.3l3-0.3c1.2-14 1.4-18.1 1.3-18.2-0.2 0-4.2-0.4-9-0.8-6.3-0.6-8.6-0.5-8.3 0.4 0.3 0.6 1.1 1.1 1.7 1.1zm-128.7 9q-1 1 1.2 3.2c1.3 1.3 2.3 2.9 2.3 3.5 0 0.7 0.4 1.3 1 1.3 0.5 0 1 0.4 1 1 0 0.5 0.6 2.5 1.4 4.2 0.8 1.8 2.8 6.3 4.5 10 1.7 3.8 3.1 7.5 3.1 8.3 0 0.8 0.4 1.5 1 1.5 0.5 0 1 0.4 1 1 0 0.5 1 3.3 2.2 6.1l2.3 5.2c1.8-16.1 2.8-24.6 3.4-29.3 0.5-4.7 1.5-10.6 2.1-13.3 0.5-2.6 0.8-5.2 0.5-5.7-0.3-0.6-1.3-0.9-2.3-0.9-0.9 0.1-6.7 0.8-12.7 1.5-6.1 0.8-11.5 1.8-12 2.4zm106.6-2.1l-6.4 0.1c-0.6 19.8-1.2 34.5-1.7 45.5-0.5 11-1 25.7-1 32.7v12.8c6.6 0.9 10.5 0.9 13 0.5 2.5-0.4 5.4-1.4 6.5-2.1 1.1-0.7 2.3-3 2.8-5.1 0.4-2.1 1.2-9.2 1.7-15.8 0.6-6.6 1.5-13.4 2-15 0.6-1.7 1-5 1-7.5 0-2.5 0.5-6.5 1.1-9 0.6-2.5 1.5-8.6 2-13.5 0.5-5 1.2-12.3 1.6-16.3 0.5-3.9 0.7-7.7 0.5-8.2-0.1-0.6-1-0.9-2-0.9-0.9 0.1-4.6 0.5-8.2 0.9-3.6 0.4-9.4 0.8-12.9 0.9zm-78.1 15.6c-0.5 4.9-1.4 11-1.9 13.5-0.5 2.5-1.2 8.5-1.4 13.5-0.3 4.9-0.1 14.2 0.3 20.5 0.5 6.3 1.2 13.1 1.5 15 0.3 1.9 0.8 5 1 6.7 0.3 1.8 1.1 3.3 1.7 3.3 0.7 0 2.1 0.8 3.2 1.8 1.3 1.2 4 1.8 9 2 3.9 0.2 8.3-0.1 9.8-0.7 2.6-1 2.7-1.3 1.9-4.9-0.5-2-1.2-13.6-1.5-25.7-0.4-12.1-0.9-23.6-1.2-25.5-0.2-1.9-0.8-10.6-1.2-19.3l-0.7-15.7c-8.5-0.1-12.7-0.3-14.8-0.4-3.7-0.3-3.8-0.2-4.3 3.3-0.3 2-0.9 7.6-1.4 12.6zm24.7 3.2c0.2 10.4 0.7 20.4 1 22.3 0.4 1.9 0.7 6.2 0.8 9.5 0 3.3 0.5 13.6 1 23 0.5 10 1.3 17.4 1.9 18 0.7 0.5 1.8 1.2 2.6 1.4 0.8 0.2 3.7 0.7 6.5 1.2 2.7 0.5 7.5 0.6 10.5 0.3 3-0.3 7.7-1.2 10.5-2 4.9-1.5 5-1.6 5.8-6.2 0.4-2.6 0.7-11.2 0.7-19.2 0-8 0.4-17 0.9-20 0.5-3 1.1-14.8 1.3-26.3l0.3-20.7h-44.2zm-21.7 83.5c0 6 0.3 7.9 1.5 8.2 0.8 0.3 2.8 0.5 4.5 0.5 1.6 0 4 0.4 5.2 0.9 1.3 0.5 9.6 1.2 18.5 1.5 14.1 0.6 16.3 0.4 16.3-0.9 0-0.9 0.9-1.5 2.5-1.5 2 0 2.6-0.6 3-3 0.3-1.6 0.9-3.2 1.5-3.5 0.5-0.2 1-1.8 1-3.5v-3c-19.6 0-23.3-0.4-25.5-1.6-2.2-1.1-6.3-1.6-15.8-1.7l-12.7-0.2zm57.5-4.2c-0.6 0-1.3 2.3-1.8 5.2-0.4 2.9-1.1 5.5-1.6 5.8-0.5 0.3-1.1 1.5-1.5 2.7-0.6 2.2-0.4 2.3 6.4 2.3 5.8 0 6.9-0.3 6.5-1.5-0.3-0.8-1.2-1.5-2-1.5-0.8 0-1.5-0.5-1.5-1 0-0.6-1.4-1-3-1-1.7 0-3-0.5-3-1.3 0-0.6 0.4-1.7 0.8-2.3 0.4-0.6 1.4-1.1 2.2-1.1 0.8-0.1 2.3-0.4 3.2-0.7 1.3-0.4 1.9 0 2 1.4 0.2 1.5 1.2 0.4 3.5-4l3.3-6c-5-0.8-7-1-7.6-1-0.6 0-2 0.9-3 2-1.1 1.1-2.4 2-2.9 2zm14.9 0.7c-0.8 2.1-1.9 4.6-2.5 5.5-0.5 1-0.9 2.4-0.9 3 0 0.8 0.5 0.6 1.3-0.4 0.6-1 1.8-1.8 2.4-1.8 0.7 0 1.3 0.8 1.3 1.7 0 1.6 0.3 1.5 1.8-0.3 0.9-1.2 2.6-2.7 3.7-3.3 1.1-0.6 2.3-0.7 2.8-0.3 0.4 0.4 0.7 1.6 0.7 2.7 0 1.6 0.2 1.7 1 0.5 0.5-0.8 1-3.9 1-6.8 0-2.8-0.3-5.1-0.8-5-0.4 0.1-2.8 0.3-5.5 0.5-4.4 0.3-4.8 0.5-6.3 4zm0.6 12.7c-1.9 0.3-3.7 0.7-3.9 1-0.2 0.3 2.1 0.6 5.2 0.6 3.1 0 5.9-0.5 6.2-1 0.3-0.6 1.4-1 2.5-1 1.1 0 2-0.5 2-1 0-0.6-1.5-1-3.3-1-1.8 0-3.7 0.4-4.3 1-0.5 0.5-2.5 1.2-4.4 1.4zm-67.8 4.5c4.7-0.1 5.7-0.3 3.8-0.9-1.4-0.5-4.2-0.9-6.3-0.9-2-0.1-3.7 0.3-3.7 0.9 0 0.6 2.7 0.9 6.2 0.9zm12.8 2.4c3.5 1.8 5 2.1 6.5 1.3 1.1-0.5 8.6-1 16.7-1 10.6-0.1 15.1 0.2 16 1.2 0.7 0.7 2.1 1.2 3 1.2 1 0 2.6-0.4 3.5-0.9 1-0.5 2.9-1.4 4.3-1.9 1.8-0.8-4.3-1.1-22.5-1.1-13.8-0.1-26.6-0.3-28.5-0.6l-3.5-0.6zm-22 11c-0.6 5.1-1.5 13-2 17.7-0.5 4.7-1.2 9.2-1.6 10-0.3 0.8-1 4.7-1.5 8.5-0.5 3.9-1.6 12-2.5 18-0.8 6.1-1.7 13.8-2 17.3l-0.4 6.2c7.7 0.8 10.2 1.5 10.5 2 0.3 0.6 1.3 1 2.2 1 1 0 4.7 0.9 8.3 2 3.6 1.1 6.8 2.1 7.2 2 0.5 0 0.8-4.4 0.9-9.7 0.1-5.4 0.5-14.5 1-20.3 0.4-5.8 1.3-19.7 1.8-31 0.6-11.3 1.3-22.5 1.6-25 0.5-4.3 0.4-4.6-2.7-6.3-2-1.1-6-2-9.8-2.2-3.6-0.2-7.2-0.2-8.2 0.1-1.2 0.4-1.9 2.7-2.8 9.7zm69.7-6.4c-2.6 1.1-2.7 1.3-2.2 6.9 0.2 3.1 0.9 17.6 1.5 32.2 0.6 14.6 1.6 32.3 2.3 39.3l1.2 12.7c7.7-0.9 11.8-1.7 14-2.3 2.2-0.6 5.1-1.2 6.5-1.3 1.4-0.2 4-1 5.7-1.9 2.6-1.2 3.1-1.8 2.4-3.2-0.5-1-1.1-5.6-1.5-10.3-0.3-4.7-1-11-1.5-14-0.5-3-1-8-1-11-0.1-3-0.6-7.1-1.1-9-0.6-1.9-1.5-8.4-2-14.5-0.5-6-1.2-13-1.5-15.5-0.3-2.5-0.8-5.9-1-7.7l-0.5-3.3c-12 0.1-16.2 0.5-17 1-0.8 0.4-2.7 1.3-4.3 1.9zm-42.6 3.9c-0.6 2.1-1.1 9.1-1.2 15.7 0 6.6-0.5 17.4-0.9 24-0.5 6.6-1.4 20.1-1.9 30-0.6 9.9-0.9 18.1-0.8 18.3 0.1 0.1 8.7 0.2 19.2 0.1 10.4-0.1 20.3-0.3 22-0.4 1.6-0.1 3.6-0.3 4.2-0.4 0.7 0 1.1-0.9 0.8-1.8-0.3-1-0.7-11-1-22.3-0.3-11.3-1-27.2-1.6-35.5-0.6-8.2-1.3-18.1-1.5-22-0.3-4.8-0.9-7.4-2.1-8.5-1.2-1.1-4.7-1.5-15.7-1.6-7.8-0.1-15.1 0-16.2 0.3-1.4 0.3-2.5 1.7-3.3 4.1z"/>
</svg>